<svg id="Capa_1" enable-background="new 0 0 512 512" height="512" viewBox="0 0 512 512" width="512" xmlns="http://www.w3.org/2000/svg" xmlns:xlink="http://www.w3.org/1999/xlink"><linearGradient id="SVGID_1_" gradientUnits="userSpaceOnUse" x1="256" x2="256" y1="512" y2="0"><stop offset="0" stop-color="#c3ffe8"/><stop offset=".9973" stop-color="#f0fff4"/></linearGradient><linearGradient id="SVGID_2_" gradientUnits="userSpaceOnUse" x1="256" x2="256" y1="407" y2="104.992"><stop offset="0" stop-color="#9cffac"/><stop offset="1" stop-color="#00b59c"/></linearGradient><g><g><circle cx="256" cy="256" fill="url(#SVGID_1_)" r="256"/></g><g><g><path d="m291.636 193.829c34.384 0 62.364-27.895 62.364-62.175v-17.764c0-7.892-9.609-11.882-15.208-6.28-2.783 2.073-11.348 15.162-29.337 15.162-22.801 0-42.577 12.399-53.455 30.661-10.877-18.262-30.653-30.661-53.455-30.661-18.04 0-26.577-13.106-29.337-15.162-5.617-5.581-15.208-1.618-15.208 6.28v17.764c0 34.28 27.98 62.175 62.364 62.175h26.727v17.764h17.818v-17.764zm26.728 88.821v-19.364c10.335-3.553 17.818-13.501 17.818-25.047 0-14.745-11.938-26.646-26.727-26.646h-44.545v71.057zm-142.546-44.41c0 11.546 7.483 21.494 17.818 25.047v19.364h53.454v-71.057h-44.545c-14.789-.001-26.727 11.901-26.727 26.646zm17.818 142.114c0 14.744 11.938 26.646 26.727 26.646h71.273c14.789 0 26.727-11.903 26.727-26.646v-79.939h-124.727zm53.455-62.175h17.818c4.924 0 8.909 3.973 8.909 8.882 0 4.91-3.985 8.882-8.909 8.882h-17.818c-4.924 0-8.909-3.973-8.909-8.882 0-4.91 3.985-8.882 8.909-8.882zm0 35.528h17.818c4.924 0 8.909 3.973 8.909 8.882s-3.985 8.882-8.909 8.882h-17.818c-4.924 0-8.909-3.973-8.909-8.882s3.985-8.882 8.909-8.882z" fill="url(#SVGID_2_)"/></g></g></g></svg>