<?xml version="1.0" encoding="UTF-8" standalone="no"?>
<!DOCTYPE svg PUBLIC "-//W3C//DTD SVG 1.1//EN" "http://www.w3.org/Graphics/SVG/1.1/DTD/svg11.dtd">
<svg width="100%" height="100%" viewBox="0 0 512 512" version="1.1" xmlns="http://www.w3.org/2000/svg" xmlns:xlink="http://www.w3.org/1999/xlink" xml:space="preserve" xmlns:serif="http://www.serif.com/" style="fill-rule:evenodd;clip-rule:evenodd;stroke-linejoin:round;stroke-miterlimit:2;">
    <g>
        <g>
            <circle cx="256" cy="256" r="256" style="fill:url(#_Linear1);"/>
        </g>
        <g>
            <g>
                <path d="M291.636,193.829C326.02,193.829 354,165.934 354,131.654L354,113.89C354,105.998 344.391,102.008 338.792,107.61C336.009,109.683 327.444,122.772 309.455,122.772C286.654,122.772 266.878,135.171 256,153.433C245.123,135.171 225.347,122.772 202.545,122.772C184.505,122.772 175.968,109.666 173.208,107.61C167.591,102.029 158,105.992 158,113.89L158,131.654C158,165.934 185.98,193.829 220.364,193.829L247.091,193.829L247.091,211.593L264.909,211.593L264.909,193.829L291.636,193.829ZM318.364,282.65L318.364,263.286C328.699,259.733 336.182,249.785 336.182,238.239C336.182,223.494 324.244,211.593 309.455,211.593L264.91,211.593L264.91,282.65L318.364,282.65ZM175.818,238.24C175.818,249.786 183.301,259.734 193.636,263.287L193.636,282.651L247.09,282.651L247.09,211.594L202.545,211.594C187.756,211.593 175.818,223.495 175.818,238.24ZM193.636,380.354C193.636,395.098 205.574,407 220.363,407L291.636,407C306.425,407 318.363,395.097 318.363,380.354L318.363,300.415L193.636,300.415L193.636,380.354ZM247.091,318.179L264.909,318.179C269.833,318.179 273.818,322.152 273.818,327.061C273.818,331.971 269.833,335.943 264.909,335.943L247.091,335.943C242.167,335.943 238.182,331.97 238.182,327.061C238.182,322.151 242.167,318.179 247.091,318.179ZM247.091,353.707L264.909,353.707C269.833,353.707 273.818,357.68 273.818,362.589C273.818,367.498 269.833,371.471 264.909,371.471L247.091,371.471C242.167,371.471 238.182,367.498 238.182,362.589C238.182,357.68 242.167,353.707 247.091,353.707Z" style="fill:url(#_Linear2);fill-rule:nonzero;"/>
            </g>
        </g>
    </g>
    <defs>
        <linearGradient id="_Linear1" x1="0" y1="0" x2="1" y2="0" gradientUnits="userSpaceOnUse" gradientTransform="matrix(3.1351e-14,-512,512,3.1351e-14,256,512)"><stop offset="0" style="stop-color:rgb(242,242,242);stop-opacity:1"/><stop offset="1" style="stop-color:rgb(251,251,251);stop-opacity:1"/><stop offset="1" style="stop-color:rgb(251,251,251);stop-opacity:1"/></linearGradient>
        <linearGradient id="_Linear2" x1="0" y1="0" x2="1" y2="0" gradientUnits="userSpaceOnUse" gradientTransform="matrix(1.84927e-14,-302.008,302.008,1.84927e-14,256,407)"><stop offset="0" style="stop-color:rgb(233,233,233);stop-opacity:1"/><stop offset="1" style="stop-color:rgb(160,160,160);stop-opacity:1"/></linearGradient>
    </defs>
</svg>
