<?xml version="1.0" encoding="UTF-8" standalone="no"?>
<!DOCTYPE svg PUBLIC "-//W3C//DTD SVG 1.1//EN" "http://www.w3.org/Graphics/SVG/1.1/DTD/svg11.dtd">
<svg width="100%" height="100%" viewBox="0 0 512 512" version="1.1" xmlns="http://www.w3.org/2000/svg" xmlns:xlink="http://www.w3.org/1999/xlink" xml:space="preserve" xmlns:serif="http://www.serif.com/" style="fill-rule:evenodd;clip-rule:evenodd;stroke-linejoin:round;stroke-miterlimit:2;">
    <g>
        <g>
            <circle cx="256" cy="256" r="256" style="fill:url(#_Linear1);"/>
        </g>
        <g>
            <g>
                <path d="M156.883,303.465C163.597,307.458 183.378,318.176 202.692,318.176C226.379,318.176 250.828,302.068 251.071,301.903C252.251,301.113 280.293,282.646 309.307,282.646C321.111,282.646 336.197,289.296 349.86,296.897L300.422,235.121L300.422,156.776C310.764,153.107 318.191,143.227 318.191,131.647C318.191,116.953 306.235,105 291.537,105L220.46,105C205.762,105 193.806,116.953 193.806,131.647C193.806,143.227 201.233,153.107 211.575,156.776L211.575,235.121L156.883,303.465ZM309.308,335.941C304.406,335.941 300.423,339.922 300.423,344.823C300.423,349.724 304.405,353.705 309.308,353.705C314.21,353.705 318.193,349.724 318.193,344.823C318.193,339.922 314.21,335.941 309.308,335.941ZM369.263,329.951C356.588,320.758 327.17,300.412 309.308,300.412C285.621,300.412 261.172,316.52 260.929,316.685C259.749,317.474 231.707,335.942 202.693,335.942C178.193,335.942 154.58,322.872 147.055,318.299C142.885,326.739 140.501,336.029 140.501,345.51C140.501,379.417 168.092,407.001 202.008,407.001L309.994,407.001C343.91,407.001 371.501,379.417 371.501,345.51C371.5,340.22 370.599,335.025 369.263,329.951ZM256,371.471C251.094,371.471 247.115,367.494 247.115,362.588C247.115,357.682 251.093,353.706 256,353.706C260.907,353.706 264.885,357.682 264.885,362.588C264.885,367.493 260.906,371.471 256,371.471ZM309.308,371.471C294.61,371.471 282.654,359.518 282.654,344.824C282.654,330.13 294.61,318.177 309.308,318.177C324.006,318.177 335.962,330.13 335.962,344.824C335.962,359.518 324.005,371.471 309.308,371.471Z" style="fill:url(#_Linear2);fill-rule:nonzero;"/>
            </g>
        </g>
    </g>
    <defs>
        <linearGradient id="_Linear1" x1="0" y1="0" x2="1" y2="0" gradientUnits="userSpaceOnUse" gradientTransform="matrix(3.1351e-14,-512,512,3.1351e-14,256,512)"><stop offset="0" style="stop-color:rgb(242,242,242);stop-opacity:1"/><stop offset="1" style="stop-color:rgb(251,251,251);stop-opacity:1"/><stop offset="1" style="stop-color:rgb(251,251,251);stop-opacity:1"/></linearGradient>
        <linearGradient id="_Linear2" x1="0" y1="0" x2="1" y2="0" gradientUnits="userSpaceOnUse" gradientTransform="matrix(1.84922e-14,-302,302,1.84922e-14,256,407)"><stop offset="0" style="stop-color:rgb(233,233,233);stop-opacity:1"/><stop offset="1" style="stop-color:rgb(160,160,160);stop-opacity:1"/></linearGradient>
    </defs>
</svg>
