<svg id="Capa_1" enable-background="new 0 0 512 512" height="512" viewBox="0 0 512 512" width="512" xmlns="http://www.w3.org/2000/svg" xmlns:xlink="http://www.w3.org/1999/xlink"><linearGradient id="SVGID_1_" gradientUnits="userSpaceOnUse" x1="256" x2="256" y1="512" y2="0"><stop offset="0" stop-color="#c3ffe8"/><stop offset=".9973" stop-color="#f0fff4"/></linearGradient><linearGradient id="SVGID_2_" gradientUnits="userSpaceOnUse" x1="256" x2="256" y1="407" y2="105"><stop offset="0" stop-color="#9cffac"/><stop offset="1" stop-color="#00b59c"/></linearGradient><g><g><circle cx="256" cy="256" fill="url(#SVGID_1_)" r="256"/></g><g><g><path d="m156.883 303.465c6.714 3.993 26.495 14.711 45.809 14.711 23.687 0 48.136-16.108 48.379-16.273 1.18-.79 29.222-19.257 58.236-19.257 11.804 0 26.89 6.65 40.553 14.251l-49.438-61.776v-78.345c10.342-3.669 17.769-13.549 17.769-25.129 0-14.694-11.956-26.647-26.654-26.647h-71.077c-14.698 0-26.654 11.953-26.654 26.647 0 11.58 7.427 21.46 17.769 25.129v78.345zm152.425 32.476c-4.902 0-8.885 3.981-8.885 8.882s3.982 8.882 8.885 8.882c4.902 0 8.885-3.981 8.885-8.882s-3.983-8.882-8.885-8.882zm59.955-5.99c-12.675-9.193-42.093-29.539-59.955-29.539-23.687 0-48.136 16.108-48.379 16.273-1.18.789-29.222 19.257-58.236 19.257-24.5 0-48.113-13.07-55.638-17.643-4.17 8.44-6.554 17.73-6.554 27.211 0 33.907 27.591 61.491 61.507 61.491h107.986c33.916 0 61.507-27.584 61.507-61.491-.001-5.29-.902-10.485-2.238-15.559zm-113.263 41.52c-4.906 0-8.885-3.977-8.885-8.883s3.978-8.882 8.885-8.882 8.885 3.976 8.885 8.882c0 4.905-3.979 8.883-8.885 8.883zm53.308 0c-14.698 0-26.654-11.953-26.654-26.647s11.956-26.647 26.654-26.647 26.654 11.953 26.654 26.647-11.957 26.647-26.654 26.647z" fill="url(#SVGID_2_)"/></g></g></g></svg>