<svg id="Capa_1" enable-background="new 0 0 512 512" height="512" viewBox="0 0 512 512" width="512" xmlns="http://www.w3.org/2000/svg" xmlns:xlink="http://www.w3.org/1999/xlink"><linearGradient id="SVGID_1_" gradientUnits="userSpaceOnUse" x1="256" x2="256" y1="512" y2="0"><stop offset="0" stop-color="#ffbef9"/><stop offset="1" stop-color="#fff1ff"/></linearGradient><linearGradient id="SVGID_2_" gradientUnits="userSpaceOnUse" x1="256" x2="256" y1="398" y2="114"><stop offset="0" stop-color="#ff81ff"/><stop offset="1" stop-color="#a93aff"/></linearGradient><g><g><circle cx="256" cy="256" fill="url(#SVGID_1_)" r="256"/></g><g><g><path d="m176.059 282.625c0 4.897 3.981 8.875 8.882 8.875s8.882-3.978 8.882-8.875v-44.375h-17.765v44.375zm26.647-115.375h-35.529c-4.901 0-8.882 3.978-8.882 8.875s3.981 8.875 8.882 8.875c4.91 0 8.882 3.969 8.882 8.875v26.625h17.765v-26.625c0-4.906 3.973-8.875 8.882-8.875 4.901 0 8.882-3.978 8.882-8.875s-3.981-8.875-8.882-8.875zm195.412-53.25h-284.236c-4.91 0-8.882 3.969-8.882 8.875v213c0 4.906 3.973 8.875 8.882 8.875h284.235c4.91 0 8.882-3.969 8.882-8.875v-213c.001-4.906-3.972-8.875-8.881-8.875zm-186.53 87.233v81.392c0 14.682-11.953 26.625-26.647 26.625s-26.647-11.943-26.647-26.625v-81.392c-10.34-3.666-17.765-13.538-17.765-25.108 0-14.682 11.953-26.625 26.647-26.625h35.529c14.694 0 26.647 11.943 26.647 26.625.001 11.57-7.424 21.442-17.764 25.108zm151 90.267h-106.588c-4.91 0-8.882-3.969-8.882-8.875s3.973-8.875 8.882-8.875h106.588c4.91 0 8.882 3.969 8.882 8.875s-3.972 8.875-8.882 8.875zm0-35.5h-106.588c-4.91 0-8.882-3.969-8.882-8.875s3.973-8.875 8.882-8.875h106.588c4.91 0 8.882 3.969 8.882 8.875s-3.972 8.875-8.882 8.875zm0-35.5h-106.588c-4.91 0-8.882-3.969-8.882-8.875s3.973-8.875 8.882-8.875h106.588c4.91 0 8.882 3.969 8.882 8.875s-3.972 8.875-8.882 8.875zm0-35.5h-106.588c-4.91 0-8.882-3.969-8.882-8.875s3.973-8.875 8.882-8.875h106.588c4.91 0 8.882 3.969 8.882 8.875s-3.972 8.875-8.882 8.875zm-35.529 195.25h-40.974l5.921-17.75h-72.013l5.921 17.75h-40.974c-4.91 0-8.882 3.969-8.882 8.875s3.973 8.875 8.882 8.875h142.118c4.91 0 8.882-3.969 8.882-8.875s-3.972-8.875-8.881-8.875z" fill="url(#SVGID_2_)"/></g></g></g></svg>