<?xml version="1.0" encoding="UTF-8" standalone="no"?>
<!DOCTYPE svg PUBLIC "-//W3C//DTD SVG 1.1//EN" "http://www.w3.org/Graphics/SVG/1.1/DTD/svg11.dtd">
<svg width="100%" height="100%" viewBox="0 0 512 512" version="1.1" xmlns="http://www.w3.org/2000/svg" xmlns:xlink="http://www.w3.org/1999/xlink" xml:space="preserve" xmlns:serif="http://www.serif.com/" style="fill-rule:evenodd;clip-rule:evenodd;stroke-linejoin:round;stroke-miterlimit:2;">
    <g>
        <g>
            <circle cx="256" cy="256" r="256" style="fill:url(#_Linear1);"/>
        </g>
        <g>
            <g>
                <path d="M176.059,282.625C176.059,287.522 180.04,291.5 184.941,291.5C189.842,291.5 193.823,287.522 193.823,282.625L193.823,238.25L176.058,238.25L176.058,282.625L176.059,282.625ZM202.706,167.25L167.177,167.25C162.276,167.25 158.295,171.228 158.295,176.125C158.295,181.022 162.276,185 167.177,185C172.087,185 176.059,188.969 176.059,193.875L176.059,220.5L193.824,220.5L193.824,193.875C193.824,188.969 197.797,185 202.706,185C207.607,185 211.588,181.022 211.588,176.125C211.588,171.228 207.607,167.25 202.706,167.25ZM398.118,114L113.882,114C108.972,114 105,117.969 105,122.875L105,335.875C105,340.781 108.973,344.75 113.882,344.75L398.117,344.75C403.027,344.75 406.999,340.781 406.999,335.875L406.999,122.875C407,117.969 403.027,114 398.118,114ZM211.588,201.233L211.588,282.625C211.588,297.307 199.635,309.25 184.941,309.25C170.247,309.25 158.294,297.307 158.294,282.625L158.294,201.233C147.954,197.567 140.529,187.695 140.529,176.125C140.529,161.443 152.482,149.5 167.176,149.5L202.705,149.5C217.399,149.5 229.352,161.443 229.352,176.125C229.353,187.695 221.928,197.567 211.588,201.233ZM362.588,291.5L256,291.5C251.09,291.5 247.118,287.531 247.118,282.625C247.118,277.719 251.091,273.75 256,273.75L362.588,273.75C367.498,273.75 371.47,277.719 371.47,282.625C371.47,287.531 367.498,291.5 362.588,291.5ZM362.588,256L256,256C251.09,256 247.118,252.031 247.118,247.125C247.118,242.219 251.091,238.25 256,238.25L362.588,238.25C367.498,238.25 371.47,242.219 371.47,247.125C371.47,252.031 367.498,256 362.588,256ZM362.588,220.5L256,220.5C251.09,220.5 247.118,216.531 247.118,211.625C247.118,206.719 251.091,202.75 256,202.75L362.588,202.75C367.498,202.75 371.47,206.719 371.47,211.625C371.47,216.531 367.498,220.5 362.588,220.5ZM362.588,185L256,185C251.09,185 247.118,181.031 247.118,176.125C247.118,171.219 251.091,167.25 256,167.25L362.588,167.25C367.498,167.25 371.47,171.219 371.47,176.125C371.47,181.031 367.498,185 362.588,185ZM327.059,380.25L286.085,380.25L292.006,362.5L219.993,362.5L225.914,380.25L184.94,380.25C180.03,380.25 176.058,384.219 176.058,389.125C176.058,394.031 180.031,398 184.94,398L327.058,398C331.968,398 335.94,394.031 335.94,389.125C335.94,384.219 331.968,380.25 327.059,380.25Z" style="fill:url(#_Linear2);fill-rule:nonzero;"/>
            </g>
        </g>
    </g>
    <defs>
        <linearGradient id="_Linear1" x1="0" y1="0" x2="1" y2="0" gradientUnits="userSpaceOnUse" gradientTransform="matrix(3.1351e-14,-512,512,3.1351e-14,256,512)"><stop offset="0" style="stop-color:rgb(211,211,211);stop-opacity:1"/><stop offset="1" style="stop-color:rgb(245,245,245);stop-opacity:1"/></linearGradient>
        <linearGradient id="_Linear2" x1="0" y1="0" x2="1" y2="0" gradientUnits="userSpaceOnUse" gradientTransform="matrix(1.739e-14,-284,284,1.739e-14,256,398)"><stop offset="0" style="stop-color:rgb(177,177,177);stop-opacity:1"/><stop offset="1" style="stop-color:rgb(117,117,117);stop-opacity:1"/></linearGradient>
    </defs>
</svg>
