<?xml version="1.0" encoding="UTF-8" standalone="no"?>
<!DOCTYPE svg PUBLIC "-//W3C//DTD SVG 1.1//EN" "http://www.w3.org/Graphics/SVG/1.1/DTD/svg11.dtd">
<svg width="100%" height="100%" viewBox="0 0 512 512" version="1.1" xmlns="http://www.w3.org/2000/svg" xmlns:xlink="http://www.w3.org/1999/xlink" xml:space="preserve" xmlns:serif="http://www.serif.com/" style="fill-rule:evenodd;clip-rule:evenodd;stroke-linejoin:round;stroke-miterlimit:2;">
    <g>
        <g>
            <circle cx="256" cy="256" r="256" style="fill:url(#_Linear1);"/>
        </g>
        <g>
            <g>
                <path d="M229.353,238.235C228.945,234.132 231.148,229.63 235.052,228.294C242.269,225.831 247.118,219.117 247.118,211.587C247.118,201.794 239.146,193.822 229.353,193.822C219.56,193.822 211.588,201.794 211.588,211.587C211.588,215.17 212.646,218.613 214.65,221.562C216.949,224.928 216.654,229.421 213.948,232.457C212.872,233.671 211.589,235.658 211.589,238.234C211.589,243.135 215.57,247.116 220.471,247.116C225.372,247.116 229.353,243.136 229.353,238.235ZM318.177,247.118C318.177,242.217 314.196,238.236 309.295,238.236C304.394,238.236 300.412,242.217 300.412,247.118C300.82,251.221 298.617,255.723 294.713,257.059C287.496,259.523 282.647,266.236 282.647,273.765C282.647,283.558 290.619,291.53 300.412,291.53C310.205,291.53 318.177,283.558 318.177,273.765C318.177,270.183 317.119,266.739 315.115,263.79C312.816,260.425 313.111,255.931 315.818,252.895C316.893,251.68 318.177,249.694 318.177,247.118ZM238.235,300.412C233.334,300.412 229.353,304.393 229.353,309.294C229.353,314.195 233.334,318.176 238.235,318.176C243.136,318.176 247.117,314.195 247.117,309.294C247.118,304.393 243.136,300.412 238.235,300.412ZM256,105C172.737,105 105,172.737 105,256C105,339.263 172.737,407 256,407C339.263,407 407,339.263 407,256C407,172.737 339.263,105 256,105ZM256,371.471C192.332,371.471 140.529,319.669 140.529,256C140.529,192.331 192.332,140.529 256,140.529C319.668,140.529 371.471,192.332 371.471,256C371.471,319.668 319.668,371.471 256,371.471ZM256,158.294C202.125,158.294 158.294,202.125 158.294,256C158.294,309.875 202.125,353.706 256,353.706C309.875,353.706 353.706,309.875 353.706,256C353.706,202.125 309.875,158.294 256,158.294ZM291.529,193.823C296.434,193.823 300.411,197.799 300.411,202.705C300.411,207.61 296.434,211.587 291.529,211.587C286.624,211.587 282.647,207.61 282.647,202.705C282.647,197.8 286.624,193.823 291.529,193.823ZM184.941,291.529C180.036,291.529 176.059,287.552 176.059,282.647C176.059,277.741 180.036,273.765 184.941,273.765C189.846,273.765 193.823,277.741 193.823,282.647C193.823,287.552 189.846,291.529 184.941,291.529ZM193.823,238.235C193.823,234.011 194.89,229.847 196.902,226.065C194.872,221.537 193.823,216.627 193.823,211.588C193.823,191.993 209.758,176.059 229.353,176.059C248.948,176.059 264.882,191.993 264.882,211.588C264.882,224.504 257.821,236.214 246.788,242.425C244.776,255.133 233.742,264.882 220.471,264.882C205.777,264.882 193.823,252.929 193.823,238.235ZM238.235,335.941C223.541,335.941 211.588,323.988 211.588,309.294C211.588,294.6 223.541,282.647 238.235,282.647C252.929,282.647 264.882,294.6 264.882,309.294C264.882,323.988 252.929,335.941 238.235,335.941ZM300.412,309.294C280.817,309.294 264.883,293.359 264.883,273.764C264.883,260.848 271.944,249.138 282.977,242.927C284.989,230.219 296.023,220.47 309.295,220.47C323.989,220.47 335.942,232.423 335.942,247.117C335.942,251.341 334.875,255.505 332.863,259.287C334.893,263.815 335.942,268.725 335.942,273.764C335.941,293.36 320.007,309.294 300.412,309.294Z" style="fill:url(#_Linear2);fill-rule:nonzero;"/>
            </g>
        </g>
    </g>
    <defs>
        <linearGradient id="_Linear1" x1="0" y1="0" x2="1" y2="0" gradientUnits="userSpaceOnUse" gradientTransform="matrix(3.1351e-14,-512,512,3.1351e-14,256,512)"><stop offset="0" style="stop-color:rgb(210,210,210);stop-opacity:1"/><stop offset="1" style="stop-color:rgb(245,245,245);stop-opacity:1"/></linearGradient>
        <linearGradient id="_Linear2" x1="0" y1="0" x2="1" y2="0" gradientUnits="userSpaceOnUse" gradientTransform="matrix(1.84922e-14,-302,302,1.84922e-14,256,407)"><stop offset="0" style="stop-color:rgb(190,190,190);stop-opacity:1"/><stop offset="1" style="stop-color:rgb(140,140,140);stop-opacity:1"/></linearGradient>
    </defs>
</svg>
