<svg id="Capa_1" enable-background="new 0 0 512 512" height="512" viewBox="0 0 512 512" width="512" xmlns="http://www.w3.org/2000/svg" xmlns:xlink="http://www.w3.org/1999/xlink"><linearGradient id="SVGID_1_" gradientUnits="userSpaceOnUse" x1="256" x2="256" y1="512" y2="0"><stop offset="0" stop-color="#ffc2cc"/><stop offset="1" stop-color="#fff2f4"/></linearGradient><linearGradient id="SVGID_2_" gradientUnits="userSpaceOnUse" x1="256" x2="256" y1="407" y2="105"><stop offset="0" stop-color="#ffa68d"/><stop offset="1" stop-color="#fd3a84"/></linearGradient><g><g><circle cx="256" cy="256" fill="url(#SVGID_1_)" r="256"/></g><g><g><path d="m229.353 238.235c-.408-4.103 1.795-8.605 5.699-9.941 7.217-2.463 12.066-9.177 12.066-16.707 0-9.793-7.972-17.765-17.765-17.765s-17.765 7.972-17.765 17.765c0 3.583 1.058 7.026 3.062 9.975 2.299 3.366 2.004 7.859-.702 10.895-1.076 1.214-2.359 3.201-2.359 5.777 0 4.901 3.981 8.882 8.882 8.882s8.882-3.98 8.882-8.881zm88.824 8.883c0-4.901-3.981-8.882-8.882-8.882s-8.883 3.981-8.883 8.882c.408 4.103-1.795 8.605-5.699 9.941-7.217 2.464-12.066 9.177-12.066 16.706 0 9.793 7.972 17.765 17.765 17.765s17.765-7.972 17.765-17.765c0-3.582-1.058-7.026-3.062-9.975-2.299-3.365-2.004-7.859.703-10.895 1.075-1.215 2.359-3.201 2.359-5.777zm-79.942 53.294c-4.901 0-8.882 3.981-8.882 8.882s3.981 8.882 8.882 8.882 8.882-3.981 8.882-8.882c.001-4.901-3.981-8.882-8.882-8.882zm17.765-195.412c-83.263 0-151 67.737-151 151s67.737 151 151 151 151-67.737 151-151-67.737-151-151-151zm0 266.471c-63.668 0-115.471-51.802-115.471-115.471s51.803-115.471 115.471-115.471 115.471 51.803 115.471 115.471-51.803 115.471-115.471 115.471zm0-213.177c-53.875 0-97.706 43.831-97.706 97.706s43.831 97.706 97.706 97.706 97.706-43.831 97.706-97.706-43.831-97.706-97.706-97.706zm35.529 35.529c4.905 0 8.882 3.976 8.882 8.882 0 4.905-3.977 8.882-8.882 8.882s-8.882-3.977-8.882-8.882 3.977-8.882 8.882-8.882zm-106.588 97.706c-4.905 0-8.882-3.977-8.882-8.882 0-4.906 3.977-8.882 8.882-8.882s8.882 3.976 8.882 8.882c0 4.905-3.977 8.882-8.882 8.882zm8.882-53.294c0-4.224 1.067-8.388 3.079-12.17-2.03-4.528-3.079-9.438-3.079-14.477 0-19.595 15.935-35.529 35.53-35.529s35.529 15.934 35.529 35.529c0 12.916-7.061 24.626-18.094 30.837-2.012 12.708-13.046 22.457-26.317 22.457-14.694 0-26.648-11.953-26.648-26.647zm44.412 97.706c-14.694 0-26.647-11.953-26.647-26.647s11.953-26.647 26.647-26.647 26.647 11.953 26.647 26.647-11.953 26.647-26.647 26.647zm62.177-26.647c-19.595 0-35.529-15.935-35.529-35.53 0-12.916 7.061-24.626 18.094-30.837 2.012-12.708 13.046-22.457 26.318-22.457 14.694 0 26.647 11.953 26.647 26.647 0 4.224-1.067 8.388-3.079 12.17 2.03 4.528 3.079 9.438 3.079 14.477-.001 19.596-15.935 35.53-35.53 35.53z" fill="url(#SVGID_2_)"/></g></g></g></svg>