<svg id="Capa_1" enable-background="new 0 0 512 512" height="512" viewBox="0 0 512 512" width="512" xmlns="http://www.w3.org/2000/svg" xmlns:xlink="http://www.w3.org/1999/xlink"><linearGradient id="SVGID_1_" gradientUnits="userSpaceOnUse" x1="256" x2="256" y1="512" y2="0"><stop offset="0" stop-color="#addcff"/><stop offset=".5028" stop-color="#eaf6ff"/><stop offset="1" stop-color="#eaf6ff"/></linearGradient><linearGradient id="SVGID_2_" gradientUnits="userSpaceOnUse" x1="256" x2="256" y1="407" y2="105"><stop offset="0" stop-color="#00c0ff"/><stop offset="1" stop-color="#5558ff"/></linearGradient><g><g><circle cx="256" cy="256" fill="url(#SVGID_1_)" r="256"/></g><g><g><path d="m389.125 140.53h-92.481l-5.3-28.287c-.78-4.198-4.446-7.243-8.719-7.243h-71c-4.273 0-7.939 3.045-8.719 7.243l-5.299 28.287h-74.732c-4.906 0-8.875 3.973-8.875 8.882v177.648c0 4.91 3.969 8.882 8.875 8.882h38.123l-3.328 17.765h-17.045c-4.906 0-8.875 3.973-8.875 8.882 0 4.91 3.969 8.883 8.875 8.883h13.717l-4.686 25.008c-.91 4.823 2.262 9.464 7.081 10.366 4.838.908 9.459-2.282 10.357-7.087l5.3-28.287h149.463l5.299 28.287c.898 4.804 5.519 7.995 10.357 7.087 4.819-.902 7.991-5.543 7.081-10.366l-4.685-25.008h13.716c4.906 0 8.875-3.973 8.875-8.883s-3.969-8.882-8.875-8.882h-17.044l-3.328-17.765h55.872c4.906 0 8.875-3.973 8.875-8.882v-177.648c0-4.91-3.969-8.882-8.875-8.882zm-170.133-17.765h56.266l3.331 17.765h-62.929zm-51.078 159.883c-.405 2.771-.664 5.69-.664 8.882 0 4.91-3.969 8.882-8.875 8.882s-8.875-3.973-8.875-8.882c0-8.021 1.135-14.957 2.987-21.15.015-.036.024-.073.039-.109 4.121-13.691 11.938-23.522 20.058-32.035-8.119-8.513-15.936-18.344-20.056-32.034-.016-.038-.024-.076-.04-.113-1.852-6.192-2.987-13.126-2.987-21.148 0-4.91 3.969-8.882 8.875-8.882s8.875 3.973 8.875 8.882c0 3.192.259 6.111.664 8.882h34.172c.405-2.771.664-5.69.664-8.882 0-4.91 3.969-8.882 8.875-8.882s8.875 3.973 8.875 8.882c0 8.022-1.135 14.955-2.987 21.148-.016.037-.024.075-.04.113-4.12 13.69-11.938 23.521-20.057 32.034 8.12 8.513 15.936 18.344 20.058 32.035.015.037.024.074.039.109 1.852 6.193 2.987 13.128 2.987 21.15 0 4.91-3.969 8.882-8.875 8.882s-8.875-3.973-8.875-8.882c0-3.192-.259-6.111-.664-8.882zm7.808 71.059 3.328-17.765h136.151l3.328 17.765zm160.153-71.059h-88.75c-4.906 0-8.875-3.973-8.875-8.882 0-4.91 3.969-8.882 8.875-8.882h88.75c4.906 0 8.875 3.973 8.875 8.882s-3.969 8.882-8.875 8.882zm0-35.53h-88.75c-4.906 0-8.875-3.973-8.875-8.882s3.969-8.882 8.875-8.882h88.75c4.906 0 8.875 3.973 8.875 8.882s-3.969 8.882-8.875 8.882zm0-35.529h-88.75c-4.906 0-8.875-3.973-8.875-8.882s3.969-8.882 8.875-8.882h88.75c4.906 0 8.875 3.973 8.875 8.882s-3.969 8.882-8.875 8.882zm-161.775 53.294h21.8c-2.976-5.073-6.741-9.543-10.9-13.931-4.159 4.389-7.924 8.858-10.9 13.931zm10.9-39.363c4.159-4.388 7.924-8.857 10.9-13.931h-21.8c2.976 5.073 6.741 9.543 10.9 13.931z" fill="url(#SVGID_2_)"/></g></g></g></svg>