<?xml version="1.0" encoding="UTF-8" standalone="no"?>
<!DOCTYPE svg PUBLIC "-//W3C//DTD SVG 1.1//EN" "http://www.w3.org/Graphics/SVG/1.1/DTD/svg11.dtd">
<svg width="100%" height="100%" viewBox="0 0 512 512" version="1.1" xmlns="http://www.w3.org/2000/svg" xmlns:xlink="http://www.w3.org/1999/xlink" xml:space="preserve" xmlns:serif="http://www.serif.com/" style="fill-rule:evenodd;clip-rule:evenodd;stroke-linejoin:round;stroke-miterlimit:2;">
    <g>
        <g>
            <circle cx="256" cy="256" r="256" style="fill:url(#_Linear1);"/>
        </g>
        <g>
            <g>
                <path d="M389.125,140.53L296.644,140.53L291.344,112.243C290.564,108.045 286.898,105 282.625,105L211.625,105C207.352,105 203.686,108.045 202.906,112.243L197.607,140.53L122.875,140.53C117.969,140.53 114,144.503 114,149.412L114,327.06C114,331.97 117.969,335.942 122.875,335.942L160.998,335.942L157.67,353.707L140.625,353.707C135.719,353.707 131.75,357.68 131.75,362.589C131.75,367.499 135.719,371.472 140.625,371.472L154.342,371.472L149.656,396.48C148.746,401.303 151.918,405.944 156.737,406.846C161.575,407.754 166.196,404.564 167.094,399.759L172.394,371.472L321.857,371.472L327.156,399.759C328.054,404.563 332.675,407.754 337.513,406.846C342.332,405.944 345.504,401.303 344.594,396.48L339.909,371.472L353.625,371.472C358.531,371.472 362.5,367.499 362.5,362.589C362.5,357.679 358.531,353.707 353.625,353.707L336.581,353.707L333.253,335.942L389.125,335.942C394.031,335.942 398,331.969 398,327.06L398,149.412C398,144.502 394.031,140.53 389.125,140.53ZM218.992,122.765L275.258,122.765L278.589,140.53L215.66,140.53L218.992,122.765ZM167.914,282.648C167.509,285.419 167.25,288.338 167.25,291.53C167.25,296.44 163.281,300.412 158.375,300.412C153.469,300.412 149.5,296.439 149.5,291.53C149.5,283.509 150.635,276.573 152.487,270.38C152.502,270.344 152.511,270.307 152.526,270.271C156.647,256.58 164.464,246.749 172.584,238.236C164.465,229.723 156.648,219.892 152.528,206.202C152.512,206.164 152.504,206.126 152.488,206.089C150.636,199.897 149.501,192.963 149.501,184.941C149.501,180.031 153.47,176.059 158.376,176.059C163.282,176.059 167.251,180.032 167.251,184.941C167.251,188.133 167.51,191.052 167.915,193.823L202.087,193.823C202.492,191.052 202.751,188.133 202.751,184.941C202.751,180.031 206.72,176.059 211.626,176.059C216.532,176.059 220.501,180.032 220.501,184.941C220.501,192.963 219.366,199.896 217.514,206.089C217.498,206.126 217.49,206.164 217.474,206.202C213.354,219.892 205.536,229.723 197.417,238.236C205.537,246.749 213.353,256.58 217.475,270.271C217.49,270.308 217.499,270.345 217.514,270.38C219.366,276.573 220.501,283.508 220.501,291.53C220.501,296.44 216.532,300.412 211.626,300.412C206.72,300.412 202.751,296.439 202.751,291.53C202.751,288.338 202.492,285.419 202.087,282.648L167.914,282.648ZM175.722,353.707L179.05,335.942L315.201,335.942L318.529,353.707L175.722,353.707ZM335.875,282.648L247.125,282.648C242.219,282.648 238.25,278.675 238.25,273.766C238.25,268.856 242.219,264.884 247.125,264.884L335.875,264.884C340.781,264.884 344.75,268.857 344.75,273.766C344.75,278.675 340.781,282.648 335.875,282.648ZM335.875,247.118L247.125,247.118C242.219,247.118 238.25,243.145 238.25,238.236C238.25,233.327 242.219,229.354 247.125,229.354L335.875,229.354C340.781,229.354 344.75,233.327 344.75,238.236C344.75,243.145 340.781,247.118 335.875,247.118ZM335.875,211.589L247.125,211.589C242.219,211.589 238.25,207.616 238.25,202.707C238.25,197.798 242.219,193.825 247.125,193.825L335.875,193.825C340.781,193.825 344.75,197.798 344.75,202.707C344.75,207.616 340.781,211.589 335.875,211.589ZM174.1,264.883L195.9,264.883C192.924,259.81 189.159,255.34 185,250.952C180.841,255.341 177.076,259.81 174.1,264.883ZM185,225.52C189.159,221.132 192.924,216.663 195.9,211.589L174.1,211.589C177.076,216.662 180.841,221.132 185,225.52Z" style="fill:url(#_Linear2);fill-rule:nonzero;"/>
            </g>
        </g>
    </g>
    <defs>
        <linearGradient id="_Linear1" x1="0" y1="0" x2="1" y2="0" gradientUnits="userSpaceOnUse" gradientTransform="matrix(3.1351e-14,-512,512,3.1351e-14,256,512)"><stop offset="0" style="stop-color:rgb(213,213,213);stop-opacity:1"/><stop offset="0.5" style="stop-color:rgb(244,244,244);stop-opacity:1"/><stop offset="1" style="stop-color:rgb(244,244,244);stop-opacity:1"/></linearGradient>
        <linearGradient id="_Linear2" x1="0" y1="0" x2="1" y2="0" gradientUnits="userSpaceOnUse" gradientTransform="matrix(1.84922e-14,-302,302,1.84922e-14,256,407)"><stop offset="0" style="stop-color:rgb(177,177,177);stop-opacity:1"/><stop offset="1" style="stop-color:rgb(108,108,108);stop-opacity:1"/></linearGradient>
    </defs>
</svg>
