<svg id="Capa_1" enable-background="new 0 0 512 512" height="512" viewBox="0 0 512 512" width="512" xmlns="http://www.w3.org/2000/svg" xmlns:xlink="http://www.w3.org/1999/xlink"><linearGradient id="SVGID_1_" gradientUnits="userSpaceOnUse" x1="256" x2="256" y1="512" y2="0"><stop offset="0" stop-color="#ffc2cc"/><stop offset="1" stop-color="#fff2f4"/></linearGradient><linearGradient id="SVGID_2_" gradientUnits="userSpaceOnUse" x1="256" x2="256" y1="407" y2="105"><stop offset="0" stop-color="#ffa68d"/><stop offset="1" stop-color="#fd3a84"/></linearGradient><g><g><circle cx="256" cy="256" fill="url(#SVGID_1_)" r="256"/></g><g><g><path d="m348.398 208.986-25.12-25.12c-3.47-3.47-9.091-3.47-12.56 0l-25.572 25.571v-52.661c10.34-3.669 17.765-13.549 17.765-25.129 0-14.694-11.953-26.647-26.647-26.647h-53.294c-14.694 0-26.647 11.953-26.647 26.647 0 11.58 7.425 21.46 17.765 25.129v80.323c-23.758 10.407-41.463 30.553-49.105 54.561 9.892-4.612 22.687-9.012 35.781-9.012 27.003 0 52.982 18.667 54.075 19.465.217.156 22.475 16.065 43.631 16.065 15.233 0 31.053-8.276 38.704-12.894-2.731-18.218-10.881-35.208-23.958-48.554l35.182-35.182c3.469-3.472 3.469-9.092 0-12.562zm-104.004 107.49c-.217-.156-22.475-16.065-43.631-16.065-15.836 0-32.28 8.911-39.649 13.462-2.583 52.051 39.014 93.127 88.502 93.127 46.563 0 84.452-36.145 88.111-81.782-10.262 5.18-24.575 10.723-39.258 10.723-27.003 0-52.982-18.667-54.075-19.465zm-39.19 19.465c-4.905 0-8.882-3.977-8.882-8.882s3.977-8.882 8.882-8.882 8.882 3.977 8.882 8.882-3.977 8.882-8.882 8.882zm35.53 35.53c-4.905 0-8.882-3.977-8.882-8.882s3.977-8.882 8.882-8.882 8.882 3.977 8.882 8.882c0 4.904-3.977 8.882-8.882 8.882z" fill="url(#SVGID_2_)"/></g></g></g></svg>