<?xml version="1.0" encoding="UTF-8" standalone="no"?>
<!DOCTYPE svg PUBLIC "-//W3C//DTD SVG 1.1//EN" "http://www.w3.org/Graphics/SVG/1.1/DTD/svg11.dtd">
<svg width="100%" height="100%" viewBox="0 0 512 512" version="1.1" xmlns="http://www.w3.org/2000/svg" xmlns:xlink="http://www.w3.org/1999/xlink" xml:space="preserve" xmlns:serif="http://www.serif.com/" style="fill-rule:evenodd;clip-rule:evenodd;stroke-linejoin:round;stroke-miterlimit:2;">
    <g>
        <g>
            <circle cx="256" cy="256" r="256" style="fill:url(#_Linear1);"/>
        </g>
        <g>
            <g>
                <path d="M348.398,208.986L323.278,183.866C319.808,180.396 314.187,180.396 310.718,183.866L285.146,209.437L285.146,156.776C295.486,153.107 302.911,143.227 302.911,131.647C302.911,116.953 290.958,105 276.264,105L222.97,105C208.276,105 196.323,116.953 196.323,131.647C196.323,143.227 203.748,153.107 214.088,156.776L214.088,237.099C190.33,247.506 172.625,267.652 164.983,291.66C174.875,287.048 187.67,282.648 200.764,282.648C227.767,282.648 253.746,301.315 254.839,302.113C255.056,302.269 277.314,318.178 298.47,318.178C313.703,318.178 329.523,309.902 337.174,305.284C334.443,287.066 326.293,270.076 313.216,256.73L348.398,221.548C351.867,218.076 351.867,212.456 348.398,208.986ZM244.394,316.476C244.177,316.32 221.919,300.411 200.763,300.411C184.927,300.411 168.483,309.322 161.114,313.873C158.531,365.924 200.128,407 249.616,407C296.179,407 334.068,370.855 337.727,325.218C327.465,330.398 313.152,335.941 298.469,335.941C271.466,335.941 245.487,317.274 244.394,316.476ZM205.204,335.941C200.299,335.941 196.322,331.964 196.322,327.059C196.322,322.154 200.299,318.177 205.204,318.177C210.109,318.177 214.086,322.154 214.086,327.059C214.086,331.964 210.109,335.941 205.204,335.941ZM240.734,371.471C235.829,371.471 231.852,367.494 231.852,362.589C231.852,357.684 235.829,353.707 240.734,353.707C245.639,353.707 249.616,357.684 249.616,362.589C249.616,367.493 245.639,371.471 240.734,371.471Z" style="fill:url(#_Linear2);fill-rule:nonzero;"/>
            </g>
        </g>
    </g>
    <defs>
        <linearGradient id="_Linear1" x1="0" y1="0" x2="1" y2="0" gradientUnits="userSpaceOnUse" gradientTransform="matrix(3.1351e-14,-512,512,3.1351e-14,256,512)"><stop offset="0" style="stop-color:rgb(210,210,210);stop-opacity:1"/><stop offset="1" style="stop-color:rgb(245,245,245);stop-opacity:1"/></linearGradient>
        <linearGradient id="_Linear2" x1="0" y1="0" x2="1" y2="0" gradientUnits="userSpaceOnUse" gradientTransform="matrix(1.84922e-14,-302,302,1.84922e-14,256,407)"><stop offset="0" style="stop-color:rgb(190,190,190);stop-opacity:1"/><stop offset="1" style="stop-color:rgb(140,140,140);stop-opacity:1"/></linearGradient>
    </defs>
</svg>
